<svg id="Capa_1" enable-background="new 0 0 510 510" height="512" viewBox="0 0 510 510" width="512" xmlns="http://www.w3.org/2000/svg" xmlns:xlink="http://www.w3.org/1999/xlink"><linearGradient id="lg1"><stop offset="0" stop-color="#ffd945"/><stop offset=".3043" stop-color="#ffcd3e"/><stop offset=".8558" stop-color="#ffad2b"/><stop offset="1" stop-color="#ffa325"/></linearGradient><linearGradient id="SVGID_1_" gradientTransform="matrix(-.881 -.474 .474 -.881 4142.572 -1643.019)" gradientUnits="userSpaceOnUse" x1="2561.611" x2="2584.87" xlink:href="#lg1" y1="-3490.363" y2="-3476.619"/><linearGradient id="lg2"><stop offset="0" stop-color="#fbb27e" stop-opacity="0"/><stop offset="1" stop-color="#ff7044"/></linearGradient><linearGradient id="SVGID_2_" gradientTransform="matrix(.881 .474 .474 -.881 1760.749 -2924.068)" gradientUnits="userSpaceOnUse" x1="187.03" x2="192.063" xlink:href="#lg2" y1="-3409.475" y2="-3400.111"/><linearGradient id="SVGID_3_" gradientTransform="matrix(.55 .835 .835 -.55 3100.26 -2589.261)" gradientUnits="userSpaceOnUse" x1="774.179" x2="756.387" xlink:href="#lg2" y1="-3962.339" y2="-3962.339"/><linearGradient id="lg3"><stop offset="0" stop-color="#9b62cd"/><stop offset=".3003" stop-color="#985dcb"/><stop offset=".6716" stop-color="#8f4ec7"/><stop offset="1" stop-color="#833ac1"/></linearGradient><linearGradient id="SVGID_4_" gradientUnits="userSpaceOnUse" x1="346.529" x2="409.51" xlink:href="#lg3" y1="105.448" y2="168.43"/><linearGradient id="lg4"><stop offset="0" stop-color="#8a7889"/><stop offset="1" stop-color="#6e566e"/></linearGradient><linearGradient id="SVGID_5_" gradientTransform="matrix(0 1 1 0 1516.82 -1516.82)" gradientUnits="userSpaceOnUse" x1="1815.587" x2="1930.257" xlink:href="#lg4" y1="-1442.669" y2="-1155.995"/><linearGradient id="SVGID_6_" gradientTransform="matrix(0 -1 -1 0 -6485.18 3249.18)" gradientUnits="userSpaceOnUse" x1="2905.9" x2="2905.9" xlink:href="#lg4" y1="-6677.861" y2="-6661.989"/><linearGradient id="SVGID_7_" gradientTransform="matrix(0 1 1 0 1516.82 -1516.82)" gradientUnits="userSpaceOnUse" x1="1860.1" x2="1860.1" xlink:href="#lg4" y1="-1171.568" y2="-1186.726"/><linearGradient id="SVGID_8_" gradientTransform="matrix(0 1 1 0 1516.82 -1516.82)" gradientUnits="userSpaceOnUse" x1="1860.1" x2="1860.1" xlink:href="#lg4" y1="-1470.448" y2="-1486.609"/><linearGradient id="lg5"><stop offset="0" stop-color="#f8f6fb"/><stop offset="1" stop-color="#efdcfb"/></linearGradient><linearGradient id="SVGID_9_" gradientTransform="matrix(0 1 1 0 1516.82 -1516.82)" gradientUnits="userSpaceOnUse" x1="1841.64" x2="1889.194" xlink:href="#lg5" y1="-1454.264" y2="-1335.38"/><linearGradient id="SVGID_10_" gradientTransform="matrix(0 1 1 0 1516.82 -1516.82)" gradientUnits="userSpaceOnUse" x1="1841.64" x2="1889.194" xlink:href="#lg5" y1="-1300.809" y2="-1181.925"/><linearGradient id="lg6"><stop offset="0" stop-color="#6e566e" stop-opacity="0"/><stop offset=".3782" stop-color="#6a516a" stop-opacity=".378"/><stop offset=".8244" stop-color="#5f435d" stop-opacity=".824"/><stop offset="1" stop-color="#593b56"/></linearGradient><linearGradient id="SVGID_11_" gradientUnits="userSpaceOnUse" x1="209.28" x2="172.585" xlink:href="#lg6" y1="334.688" y2="184.003"/><linearGradient id="SVGID_12_" gradientUnits="userSpaceOnUse" x1="369.184" x2="252.071" xlink:href="#lg6" y1="350.933" y2="282.227"/><linearGradient id="SVGID_13_" gradientTransform="matrix(0 1 1 0 1516.82 -1516.82)" gradientUnits="userSpaceOnUse" x1="1641.68" x2="1839.395" xlink:href="#lg4" y1="-1364.2" y2="-1288.409"/><linearGradient id="SVGID_14_" gradientTransform="matrix(0 1 1 0 1516.82 -1516.82)" gradientUnits="userSpaceOnUse" x1="1959.025" x2="2026.82" xlink:href="#lg4" y1="-1331.388" y2="-1331.388"/><linearGradient id="SVGID_15_" gradientTransform="matrix(-.881 -.474 .474 -.881 4142.572 -1643.019)" gradientUnits="userSpaceOnUse" x1="2564.363" x2="2571.021" xlink:href="#lg3" y1="-3305.489" y2="-3309.738"/><linearGradient id="SVGID_16_" gradientTransform="matrix(-.881 -.474 .474 -.881 4142.572 -1643.019)" gradientUnits="userSpaceOnUse" x1="2504.684" x2="2532.615" xlink:href="#lg1" y1="-3488.15" y2="-3504.042"/><linearGradient id="SVGID_17_" gradientTransform="matrix(-.881 -.474 .474 -.881 4142.572 -1643.019)" gradientUnits="userSpaceOnUse" x1="2553.275" x2="2558.309" xlink:href="#lg2" y1="-3409.763" y2="-3400.399"/><linearGradient id="SVGID_18_" gradientTransform="matrix(-1 .001 -.001 -1 3113.669 -2582.17)" gradientUnits="userSpaceOnUse" x1="2844.801" x2="2832.53" xlink:href="#lg2" y1="-2844.861" y2="-2844.861"/><linearGradient id="SVGID_19_" gradientTransform="matrix(-.707 .707 -.707 -.707 2931.273 -4331.747)" gradientUnits="userSpaceOnUse" x1="5061.536" x2="5061.536" xlink:href="#lg1" y1="-1325.923" y2="-1304.835"/><linearGradient id="SVGID_20_" gradientTransform="matrix(.707 -.707 .707 .707 1794.164 1214.106)" gradientUnits="userSpaceOnUse" x1="-335.923" x2="-335.923" xlink:href="#lg1" y1="-1807.053" y2="-1791.299"/><linearGradient id="SVGID_21_" gradientUnits="userSpaceOnUse" x1="251.111" x2="335.942" xlink:href="#lg3" y1="83.049" y2="83.049"/><linearGradient id="lg7"><stop offset="0" stop-color="#18cefb"/><stop offset="1" stop-color="#4a97f6"/></linearGradient><linearGradient id="SVGID_22_" gradientTransform="matrix(0 1 -1 0 -345.756 -3360.429)" gradientUnits="userSpaceOnUse" x1="3703.873" x2="3703.873" xlink:href="#lg7" y1="-784.333" y2="-692.515"/><linearGradient id="SVGID_23_" gradientTransform="matrix(0 1 -1 0 -345.756 -3360.429)" gradientUnits="userSpaceOnUse" x1="3818.876" x2="3818.876" xlink:href="#lg7" y1="-784.333" y2="-692.515"/><linearGradient id="SVGID_24_" gradientTransform="matrix(0 1 -1 0 -345.756 -3360.429)" gradientUnits="userSpaceOnUse" x1="3588.871" x2="3588.871" xlink:href="#lg7" y1="-784.333" y2="-692.515"/><g><g><g><g><path d="m186.781 217.596 76.059-50.102c4.872-3.209 10.796-4.409 16.532-3.348 5.736 1.061 11.661-.139 16.532-3.348l25.258-16.638 14.498 22.009-186.576 122.903c-4.074 2.684-9.335-.99-8.217-5.739 6.346-26.973 22.774-50.494 45.914-65.737z" fill="url(#SVGID_1_)"/><path d="m313.407 180.828-14.498-22.009 22.255-14.659 14.497 22.009z" fill="url(#SVGID_2_)"/><path d="m140.866 283.333c.004-.018.009-.037.013-.055.809-3.429 2.94-6.399 5.882-8.337l114.482-75.412c10.136-6.677 22.458-9.183 34.396-6.996l-144.843 95.412c-3.995 2.63-9.362.138-9.93-4.612z" fill="url(#SVGID_3_)"/></g><path d="m369.995 179.612c17.574 8.794 39.234 8.184 56.762-3.492 26.415-17.596 33.278-53.542 14.944-79.675-17.238-24.572-51.144-31.376-76.528-15.357-8.682 5.479-15.349 12.899-19.817 21.324-7.777 14.665-19.394 26.942-33.209 36.144l-7.766 5.173c-5.536 3.688-7.035 11.165-3.347 16.702l9.102 13.665c3.269 4.908 9.612 6.727 14.986 4.298 14.355-6.49 30.785-5.832 44.873 1.218zm43.782-22.977c-15.266 10.169-35.885 6.037-46.054-9.229s-6.037-35.885 9.229-46.054 35.885-6.037 46.054 9.229c10.169 15.265 6.038 35.885-9.229 46.054z" fill="url(#SVGID_4_)"/></g><g><path d="m349.71 456.96v-227.362h-328.556v227.362z" fill="url(#SVGID_5_)"/><g><path d="m178.842 259.909v166.74c0 3.64 2.951 6.591 6.591 6.591 3.64 0 6.591-2.951 6.591-6.591v-166.74c0-3.64-2.951-6.591-6.591-6.591-3.641.001-6.591 2.951-6.591 6.591z" fill="url(#SVGID_6_)"/><g><path d="m327.1 259.909v166.74c0 3.64 2.951 6.591 6.591 6.591 3.64 0 6.591-2.951 6.591-6.591v-166.74c0-3.64-2.951-6.591-6.591-6.591-3.64.001-6.591 2.951-6.591 6.591z" fill="url(#SVGID_7_)"/><path d="m30.583 259.909v166.74c0 3.64 2.951 6.591 6.591 6.591 3.64 0 6.591-2.951 6.591-6.591v-166.74c0-3.64-2.951-6.591-6.591-6.591-3.64.001-6.591 2.951-6.591 6.591z" fill="url(#SVGID_8_)"/></g></g><g><path d="m165.263 418.737v-150.916c0-1.729-1.401-3.13-3.13-3.13h-106.857c-1.729 0-3.13 1.401-3.13 3.13v150.917c0 1.729 1.401 3.13 3.13 3.13h106.857c1.729-.001 3.13-1.402 3.13-3.131z" fill="url(#SVGID_9_)"/><g><path d="m318.718 418.737v-150.916c0-1.729-1.401-3.13-3.13-3.13h-106.857c-1.729 0-3.13 1.401-3.13 3.13v150.917c0 1.729 1.401 3.13 3.13 3.13h106.857c1.729-.001 3.13-1.402 3.13-3.131z" fill="url(#SVGID_10_)"/></g></g><path d="m21.154 243.918v-14.32h328.556v227.362h-115.514z" fill="url(#SVGID_11_)"/><g><path d="m349.71 241.155h-84.408l.134 110.51c.003 2.169 1.186 3.836 2.79 4.713l81.484 81.484z" fill="url(#SVGID_12_)"/><path d="m23.645 244.354h323.575c3.463 0 6.271-2.808 6.271-6.271v-55.253c0-3.463-2.808-6.271-6.271-6.271h-323.575c-3.463 0-6.271 2.808-6.271 6.271v55.253c0 3.463 2.807 6.271 6.271 6.271zm289.055-21.446c-.824 0-1.492-.668-1.492-1.492v-21.921c0-.824.668-1.492 1.492-1.492h21.921c.824 0 1.492.668 1.492 1.492v21.921c0 .824-.668 1.492-1.492 1.492zm-46.076 0c-.824 0-1.492-.668-1.492-1.492v-21.921c0-.824.668-1.492 1.492-1.492h21.921c.824 0 1.492.668 1.492 1.492v21.921c0 .824-.668 1.492-1.492 1.492zm-46.076 0c-.824 0-1.492-.668-1.492-1.492v-21.921c0-.824.668-1.492 1.492-1.492h21.921c.824 0 1.492.668 1.492 1.492v21.921c0 .824-.668 1.492-1.492 1.492zm-46.076 0c-.824 0-1.492-.668-1.492-1.492v-21.921c0-.824.668-1.492 1.492-1.492h21.921c.824 0 1.492.668 1.492 1.492v21.921c0 .824-.668 1.492-1.492 1.492zm-46.077 0c-.824 0-1.492-.668-1.492-1.492v-21.921c0-.824.668-1.492 1.492-1.492h21.921c.824 0 1.492.668 1.492 1.492v21.921c0 .824-.668 1.492-1.492 1.492zm-46.076 0c-.824 0-1.492-.668-1.492-1.492v-21.921c0-.824.668-1.492 1.492-1.492h21.921c.824 0 1.492.668 1.492 1.492v21.921c0 .824-.668 1.492-1.492 1.492zm-46.076 0c-.824 0-1.492-.668-1.492-1.492v-21.921c0-.824.668-1.492 1.492-1.492h21.921c.824 0 1.492.668 1.492 1.492v21.921c0 .824-.668 1.492-1.492 1.492z" fill="url(#SVGID_13_)"/><path d="m23.645 510h323.575c3.463 0 6.271-2.808 6.271-6.271v-55.253c0-3.463-2.808-6.271-6.271-6.271h-323.575c-3.463 0-6.271 2.808-6.271 6.271v55.253c0 3.463 2.807 6.271 6.271 6.271zm289.055-21.445c-.824 0-1.492-.668-1.492-1.492v-21.921c0-.824.668-1.492 1.492-1.492h21.921c.824 0 1.492.668 1.492 1.492v21.921c0 .824-.668 1.492-1.492 1.492zm-46.076 0c-.824 0-1.492-.668-1.492-1.492v-21.921c0-.824.668-1.492 1.492-1.492h21.921c.824 0 1.492.668 1.492 1.492v21.921c0 .824-.668 1.492-1.492 1.492zm-46.076 0c-.824 0-1.492-.668-1.492-1.492v-21.921c0-.824.668-1.492 1.492-1.492h21.921c.824 0 1.492.668 1.492 1.492v21.921c0 .824-.668 1.492-1.492 1.492zm-46.076 0c-.824 0-1.492-.668-1.492-1.492v-21.921c0-.824.668-1.492 1.492-1.492h21.921c.824 0 1.492.668 1.492 1.492v21.921c0 .824-.668 1.492-1.492 1.492zm-46.077 0c-.824 0-1.492-.668-1.492-1.492v-21.921c0-.824.668-1.492 1.492-1.492h21.921c.824 0 1.492.668 1.492 1.492v21.921c0 .824-.668 1.492-1.492 1.492zm-46.076 0c-.824 0-1.492-.668-1.492-1.492v-21.921c0-.824.668-1.492 1.492-1.492h21.921c.824 0 1.492.668 1.492 1.492v21.921c0 .824-.668 1.492-1.492 1.492zm-46.076 0c-.824 0-1.492-.668-1.492-1.492v-21.921c0-.824.668-1.492 1.492-1.492h21.921c.824 0 1.492.668 1.492 1.492v21.921c0 .824-.668 1.492-1.492 1.492z" fill="url(#SVGID_14_)"/></g></g><g><g><path d="m305.999 49.967c1.968-3.659 6.53-5.029 10.189-3.061s5.029 6.53 3.061 10.189-6.53 5.029-10.189 3.061-5.03-6.53-3.061-10.189z" fill="url(#SVGID_15_)"/><g><g><g><path d="m304.303 280.818-.11-91.078c-.007-5.834-2.271-11.438-6.318-15.64-4.047-4.202-6.311-9.806-6.318-15.64l-.037-30.246-26.355.032.27 223.42c.006 4.879 5.971 7.243 9.318 3.694 19.01-20.162 29.583-46.833 29.55-74.542z" fill="url(#SVGID_16_)"/><path d="m265.198 154.894 26.355-.032-.032-26.649-26.355.032z" fill="url(#SVGID_17_)"/><path d="m274.754 355.359c.013-.014.026-.027.039-.041 2.415-2.564 3.72-5.98 3.715-9.503l-.166-137.088c-.015-12.137-4.714-23.8-13.118-32.557l.21 173.444c.005 4.784 5.043 7.889 9.32 5.745z" fill="url(#SVGID_18_)"/></g><path d="m279.189 186.661c4.477 2.408 10.059.732 12.467-3.745s.731-10.059-3.745-12.467c-4.477-2.408-10.059-.731-12.467 3.745s-.732 10.059 3.745 12.467z" fill="url(#SVGID_19_)"/><path d="m286.807 172.499c-3.344-1.799-7.514-.547-9.314 2.798-1.799 3.345-.546 7.514 2.798 9.314 3.345 1.799 7.514.546 9.314-2.798s.547-7.515-2.798-9.314z" fill="url(#SVGID_20_)"/><path d="m258.011 154.998c1.017 6.335 6.471 11.003 12.887 11.028l17.863.07c7.237.028 13.127-5.815 13.156-13.053l.04-10.153c.071-18.06 4.251-35.968 12.902-51.821 4.97-9.107 7.708-19.61 7.477-30.777-.677-32.65-27.184-59.352-59.828-60.269-34.718-.973-63.238 26.811-63.374 61.343-.09 22.913 12.343 42.944 30.865 53.626 14.847 8.562 25.297 23.084 28.012 40.006zm2.873-129.525c19.957.079 36.072 16.32 35.993 36.277-.078 19.957-16.32 36.072-36.277 35.993s-36.072-16.32-35.993-36.277 16.32-36.072 36.277-35.993z" fill="url(#SVGID_21_)"/></g></g></g></g></g><g><path d="m492.626 343.444c0-8.141-6.6-14.741-14.741-14.741h-54.049c-8.141 0-14.741 6.6-14.741 14.741s6.6 14.741 14.741 14.741h54.049c8.142-.001 14.741-6.6 14.741-14.741z" fill="url(#SVGID_22_)"/><path d="m432.758 487.979c5.757-5.757 5.757-15.09 0-20.846l-38.218-38.218c-5.757-5.757-15.09-5.757-20.846 0-5.757 5.757-5.757 15.09 0 20.846l38.218 38.218c5.756 5.756 15.089 5.756 20.846 0z" fill="url(#SVGID_23_)"/><path d="m432.758 219.755c5.757-5.757 5.757-15.09 0-20.846-5.757-5.757-15.09-5.757-20.846 0l-38.218 38.218c-5.757 5.757-5.757 15.09 0 20.846 5.757 5.757 15.09 5.757 20.846 0z" fill="url(#SVGID_24_)"/></g></g></svg>