<svg height="512" viewBox="0 0 58 58" width="512" xmlns="http://www.w3.org/2000/svg"><g id="Page-1" fill="none" fill-rule="evenodd"><g id="014---Searching-Map" fill-rule="nonzero" transform="translate(0 -1)"><path id="Shape" d="m57.41 52.41-8.56-8.56c-.5747213-.5751819-1.4404613-.7451674-2.19-.43l-4.13-4.13c2.2505366-2.9583921 3.4694157-6.5728777 3.47-10.29h10.58c.3258099-.0001386.6311253-.1589911.8182321-.4257178s.2325433-.6078823.1217679-.9142822l-3.52-9.93-2.15-6-1.79-4.95-1.57-4.42-.25-.7c-.1431502-.39594744-.5189699-.65982087-.94-.66h-36.59c-.4428242-.02614893-.84994889.24255338-1 .66l-.64 1.81-3.07 8.85-1.62 4.42-2 5.5-1.9 5.42c-.0514077.1797296-.0514077.3702704 0 .55.10064169.4691379.52030719.8006736 1 .79h10.52c.0010851 6.2005657 3.3780243 11.9087334 8.8119812 14.8952245 5.4339569 2.986491 12.0629266 2.7775494 17.2980188-.5452245l4.31 4.31c-.3151674.7495387-.1451819 1.6152787.43 2.19l8.56 8.56c.3751365.3755541.8841815.5865733 1.415.5865733s1.0398635-.2110192 1.415-.5865733l3.17-3.17c.3755541-.3751365.5865733-.8841815.5865733-1.415s-.2110192-1.0398635-.5865733-1.415z" fill="#e57e25"/><path id="Shape" d="m56.58 29h-10.58c-.0110347-4.5044527-1.8093421-8.8203903-5-12-1.645283-1.6454066-3.6085406-2.9383665-5.77-3.8l4.1-1.76 2.67 1.12 4 1.73 8 3.44 3.54 9.93c.1120573.3097468.064391.6548103-.1274428.9225783s-.5032275.4238924-.8325572.4174217z" fill="#bdc3c7"/><path id="Shape" d="m54 17.73-8-3.44-4-1.73-2.65-1.14-4.1 1.76c-3.2203792-1.2678013-6.7510036-1.5224808-10.12-.73l2.39-1-18.4-7.98.64-1.81c.15005111-.41744662.5571758-.68614893 1-.66h4.51l18.16 7.86 15.06-6.5 1.57 4.42-4.82 2.08 6.58 2.84z" fill="#f3d55b"/><path id="Shape" d="m27.52 11.42-2.39 1c-1.9715355.4540901-3.8449074 1.2603514-5.53 2.38l-3.91 1.69-9.69-4.17 3.16-8.85z" fill="#24ae5f"/><path id="Shape" d="m19.6 14.83c-2.8768243 1.9193769-5.1074101 4.6623004-6.4 7.87l-12.76 5.51c-.0514077-.1797296-.0514077-.3702704 0-.55l1.93-5.42 7.36-3.18-5.4-2.32 1.67-4.42 9.73 4.2z" fill="#f3d55b"/><path id="Shape" d="m13.2 22.7c-.7935095 2.0055938-1.2006603 4.1431358-1.2 6.3h-10.58c-.47969281.0106736-.89935831-.3208621-1-.79z" fill="#bdc3c7"/><path id="Shape" d="m9.78 19.06-7.36 3.18 1.96-5.5z" fill="#24ae5f"/><path id="Shape" d="m41 17c-4.1481582-4.171106-10.1659508-5.8866882-15.89-4.53-1.9715355.4540901-3.8449074 1.2603514-5.53 2.38-7.6754703 5.1932005-9.77742702 15.5770962-4.7259181 23.3465513 5.0515089 7.7694552 15.3950934 10.0615656 23.2559181 5.1534487 1.0474147-.6738544 2.0166971-1.4620252 2.89-2.35.5407078-.5429468 1.0451293-1.1208601 1.51-1.73 5.1230848-6.7604766 4.4787767-16.2629545-1.51-22.27zm1 12.9c-.1331248 1.9577475-.7111223 3.8593249-1.69 5.56-.1.18-.21.36-.32.54-3.4507352 5.5098405-10.4412199 7.6233856-16.3666109 4.9483795-5.9253909-2.6750061-8.9636521-9.316009-7.1133891-15.5483795.0154838-.0614121.0355397-.12158.06-.18.6134957-2.0446252 1.7270782-3.904033 3.24-5.41 4.006041-4.0167137 10.1541005-4.9719093 15.19-2.36 1.1957419.609204 2.2862143 1.4059578 3.23 2.36 2.6564617 2.6600245 4.0313523 6.3397715 3.77 10.09z" fill="#3b97d3"/><path id="Shape" d="m39.92 36c-2.3876293 3.7429925-6.5203191 6.0086911-10.96 6.0086911s-8.5723707-2.2656986-10.96-6.0086911z" fill="#fff"/><path id="Shape" d="m42 29.9c-.1331248 1.9577475-.7111223 3.8593249-1.69 5.56l-23.74-10.24c.6134957-2.0446252 1.7270782-3.904033 3.24-5.41 4.006041-4.0167137 10.1541005-4.9719093 15.19-2.36l-11 4.7z" fill="#f0c419"/><g fill="#95a5a5"><path id="Shape" d="m40.28 35.46c-.1.18-.21.36-.32.54h-21.96c-2.0093582-3.149369-2.5667386-7.0109585-1.53-10.6.0154838-.0614121.0355397-.12158.06-.18z"/><path id="Shape" d="m42 29.9-18-7.75 11-4.7c1.1957419.609204 2.2862143 1.4059578 3.23 2.36 2.6564617 2.6600245 4.0313523 6.3397715 3.77 10.09z"/><path id="Shape" d="m46.66 43.42c-.2384952.1017757-.4556312.247664-.64.43l-3.17 3.15c-.182336.1843688-.3282243.4015048-.43.64l-4.31-4.31c1.0464005-.6675886 2.0156425-1.449019 2.89-2.33.5407078-.5429468 1.0451293-1.1208601 1.51-1.73z"/></g><path id="Shape" d="m57.41 55.24-3.17 3.17c-.3751365.3755541-.8841815.5865733-1.415.5865733s-1.0398635-.2110192-1.415-.5865733l-8.56-8.56c-.5751819-.5747213-.7451674-1.4404613-.43-2.19.1017757-.2384952.247664-.4556312.43-.64l3.15-3.17c.1843688-.182336.4015048-.3282243.64-.43.7495387-.3151674 1.6152787-.1451819 2.19.43l8.56 8.56c.3782174.3724758.5928426.8800319.596594 1.4108545.0037514.5308225-.2036788 1.0413613-.576594 1.4191455z" fill="#e64c3c"/><path id="Shape" d="m42 29.9c-.1331248 1.9577475-.7111223 3.8593249-1.69 5.56l-18.15-7.83c.8285956-1.8328783 2.0752718-3.4460225 3.64-4.71z" fill="#f29c1f"/><path id="Shape" d="m40.28 35.46c-.1.18-.21.36-.32.54h-18.61c-.2343767-.9827318-.3518573-1.9897076-.35-3-.0002985-1.8521973.3951985-3.6830757 1.16-5.37z" fill="#7f8c8d"/><path id="Shape" d="m42 29.9-16.17-7c3.8194669-3.1117421 9.0697592-3.7970679 13.56-1.77 1.9040513 2.5104414 2.8315469 5.6269689 2.61 8.77z" fill="#7f8c8d"/><path id="Shape" d="m29 43c-3.7148873.0091161-7.2792998-1.4670547-9.9-4.1-.7160285-.7163481-1.3530175-1.5075555-1.9-2.36-2.1660618-3.3924883-2.7672059-7.5531342-1.65-11.42.0221037-.0814494.0488134-.1615783.08-.24 1.2209598-3.9593714 4.133016-7.1745443 7.952547-8.78033 3.819531-1.6057856 8.1541584-1.4372224 11.837453.46033 1.2906752.6555503 2.4660428 1.516811 3.48 2.55 4.4841838 4.4728946 5.4068714 11.3992029 2.25 16.89l-.31.52c-.5599958.8602073-1.2103587 1.6580752-1.94 2.38-2.6207002 2.6329453-6.1851127 4.1091161-9.9 4.1zm0-26c-5.2743116.015091-9.920465 3.472316-11.45 8.52l-.06.15c-.9623351 3.3173525-.4485262 6.8885061 1.41 9.8.4704701.7256679 1.0205492 1.3964962 1.64 2 2.2516225 2.2594542 5.3101823 3.5294628 8.5 3.5294628s6.2483775-1.2700086 8.5-3.5294628c.6194508-.6035038 1.1695299-1.2743321 1.64-2l.29-.49c.8926649-1.5789727 1.4157735-3.3397631 1.53-5.15.2375-3.4619712-1.0352744-6.8572519-3.49-9.31-.8734833-.8865006-1.8870572-1.6230309-3-2.18-1.7032401-.8804426-3.5926565-1.3399377-5.51-1.34z" fill="#bdc3c7"/></g></g></svg>