<?xml version="1.0" encoding="iso-8859-1"?>
<!-- Generator: Adobe Illustrator 19.0.0, SVG Export Plug-In . SVG Version: 6.00 Build 0)  -->
<svg version="1.1" id="Capa_1" xmlns="http://www.w3.org/2000/svg" xmlns:xlink="http://www.w3.org/1999/xlink" x="0px" y="0px"
	 viewBox="0 0 497.263 497.263" style="enable-background:new 0 0 497.263 497.263;" xml:space="preserve">
<g>
	<path style="fill:#455A64;" d="M364.927,486.703c-17.664,0-28.117-23.189-30.101-27.989c-2.156-5.482,0.54-11.674,6.023-13.83
		c5.348-2.103,11.402,0.409,13.689,5.681c2.071,5.887,5.77,11.065,10.667,14.933c5.265-7.05,9.198-15.003,11.605-23.467
		c4.139-49.323,2.411-108.288-7.68-118.4c-4.093-4.237-3.975-10.99,0.262-15.083c4.134-3.993,10.687-3.993,14.821,0
		c21.803,21.803,16.043,109.952,13.76,136.533c-0.071,0.724-0.214,1.438-0.427,2.133c-3.413,11.243-13.227,37.589-30.357,39.509
		C366.435,486.757,365.68,486.75,364.927,486.703z"/>
	<path style="fill:#455A64;" d="M355.348,465.562c-5.891,0.068-10.721-4.652-10.789-10.543c-0.017-1.51,0.286-3.006,0.89-4.39
		c6.015-11.495,18.295-18.307,31.232-17.323c5.891,0,10.667,4.776,10.667,10.667c0,5.891-4.776,10.667-10.667,10.667
		c-8.96,0-11.435,4.053-11.691,4.544C363.38,463.078,359.563,465.603,355.348,465.562z"/>
	<path style="fill:#455A64;" d="M132.436,486.703c-0.756-0.003-1.51-0.045-2.261-0.128c-17.067-1.92-26.944-28.245-30.357-39.509
		c-0.223-0.673-0.38-1.366-0.469-2.069c-2.283-26.496-8.064-114.645,13.76-136.533c4.093-4.237,10.845-4.355,15.083-0.262
		c4.237,4.093,4.355,10.845,0.262,15.083c-0.086,0.089-0.173,0.176-0.262,0.262c-10.112,10.112-11.84,69.056-7.68,118.379
		c2.262,8.783,6.609,16.892,12.672,23.637c4.111-4.334,7.374-9.399,9.621-14.933c2.422-5.37,8.739-7.76,14.109-5.338
		c5.124,2.311,7.575,8.202,5.603,13.466C160.554,463.514,150.079,486.703,132.436,486.703z"/>
	<path style="fill:#455A64;" d="M142.015,465.306c-4.158,0.002-7.939-2.413-9.685-6.187c-0.384-0.661-2.987-4.48-11.648-4.48
		c-5.891,0-10.667-4.776-10.667-10.667c0-5.891,4.776-10.667,10.667-10.667c12.902-0.982,25.156,5.79,31.189,17.237
		c2.264,5.439-0.309,11.683-5.748,13.947c-0.004,0.002-0.008,0.003-0.012,0.005C144.81,465.025,143.42,465.3,142.015,465.306z"/>
</g>
<g>
	<path style="fill:#FFC107;" d="M166.1,352.623c-1.402-5.021-2.323-10.164-2.752-15.36c0.001-3.187-1.423-6.208-3.883-8.235
		l-9.301-7.637c-29.483-24.213-29.483-24.725-29.483-37.461c0.047-5.382-3.923-9.956-9.259-10.667
		c-5.317-0.859-10.407,2.497-11.712,7.723c-6.105,34.476-2.333,69.976,10.88,102.4c1.477,4.313,5.532,7.21,10.091,7.211h32
		c4.953,0.124,9.682-2.059,12.8-5.909C171.882,376.73,169.044,365.039,166.1,352.623z"/>
	<path style="fill:#FFC107;" d="M397.887,282.287c-0.577-5.555-5.548-9.59-11.103-9.013c-0.089,0.009-0.179,0.02-0.268,0.031
		c-5.564,0.435-9.852,5.086-9.835,10.667c0,12.8,0,13.227-29.504,37.461l-9.301,7.637c-2.44,2.022-3.855,5.023-3.861,8.192
		c-0.419,5.208-1.326,10.365-2.709,15.403c-2.901,12.437-5.632,24.171,0.661,32c3.116,3.845,7.854,6.008,12.8,5.845h31.915
		c4.255,0.015,8.111-2.5,9.813-6.4C398.67,351.638,402.585,316.648,397.887,282.287z"/>
</g>
<g>
	<path style="fill:#455A64;" d="M131.348,49.306c-5.891-0.013-10.656-4.799-10.643-10.69c0.006-2.805,1.117-5.494,3.091-7.486
		C155.369,1.183,201.31-8.022,241.983,7.45c5.473,2.186,8.138,8.394,5.952,13.867s-8.394,8.138-13.867,5.952
		c-32.749-12.357-69.677-5-95.189,18.965C136.873,48.212,134.166,49.316,131.348,49.306z"/>
	<path style="fill:#455A64;" d="M366.015,49.306c-2.831,0.005-5.548-1.115-7.552-3.115c-25.534-23.923-62.436-31.275-95.189-18.965
		c-5.467,2.157-11.648-0.514-13.824-5.973c-2.164-5.449,0.475-11.623,5.909-13.824c40.669-15.514,86.634-6.305,118.187,23.68
		c4.171,4.16,4.179,10.914,0.019,15.085c-2.006,2.011-4.731,3.139-7.571,3.134L366.015,49.306z"/>
</g>
<path style="fill:#FFC107;" d="M248.682,6.596c-70.658,0.082-127.918,57.342-128,128c0,2.709,0,5.419,0.32,8.064
	c-0.213,0.851-0.321,1.725-0.32,2.603v128c0.002,3.213,1.452,6.253,3.947,8.277c35.685,27.508,79.033,43.252,124.053,45.056
	c45.02-1.804,88.369-17.548,124.053-45.056c2.495-2.024,3.945-5.065,3.947-8.277V134.596C376.599,63.938,319.34,6.679,248.682,6.596
	z"/>
<path style="fill:#455A64;" d="M248.682,283.972c-21.892-1.827-42.762-10.055-60.011-23.659c-4.506-3.795-5.083-10.524-1.289-15.03
	c3.657-4.343,10.075-5.06,14.601-1.632c13.488,10.566,29.665,17.143,46.699,18.987c17.056-1.72,33.254-8.319,46.656-19.008
	c4.601-3.682,11.315-2.937,14.997,1.664s2.937,11.315-1.664,14.997l0,0C291.431,273.9,270.568,282.135,248.682,283.972z"/>
<path style="fill:#2196F3;" d="M376.682,369.263h-27.008c0.469-3.541,1.621-8.427,2.389-11.776
	c1.246-4.921,2.221-9.906,2.923-14.933l5.739-4.693c30.123-24.704,37.291-30.613,37.291-53.931
	c0.642-7.851-2.932-15.453-9.387-19.968c-8.379-4.344-18.305-4.526-26.837-0.491c-0.9,0.384-1.74,0.894-2.496,1.515
	c-31.94,24.321-70.513,38.367-110.613,40.277c-40.094-1.959-78.656-16.008-110.613-40.299c-0.765-0.603-1.604-1.104-2.496-1.493
	c-8.537-4.012-18.453-3.831-26.837,0.491c-6.455,4.515-10.028,12.117-9.387,19.968c0,23.317,7.168,29.205,37.291,53.952l5.739,4.715
	c0.729,5.026,1.719,10.01,2.965,14.933c0.789,3.328,1.941,8.192,2.432,11.733h-27.093c-5.891,0.002-10.665,4.779-10.664,10.67
	c0,0.869,0.107,1.735,0.317,2.578c8.367,35.568,36.396,63.183,72.085,71.019c-2.094,3.683-4.661,7.076-7.637,10.091
	c-6.674,5.866-10.779,14.115-11.435,22.976c0,5.891,4.776,10.667,10.667,10.667h64c4.896-0.001,9.162-3.335,10.347-8.085l0.32-1.28
	l0.32,1.28c1.185,4.75,5.451,8.084,10.347,8.085h64c5.891,0,10.667-4.776,10.667-10.667c-0.672-8.827-4.768-17.042-11.413-22.891
	c-2.976-3.015-5.544-6.408-7.637-10.091c35.712-7.849,63.747-35.503,72.085-71.104c1.426-5.716-2.052-11.505-7.768-12.931
	C378.431,369.368,377.558,369.261,376.682,369.263z"/>
<path style="fill:#1976D2;" d="M307.924,328.431c-3.01-2.008-6.833-2.354-10.155-0.917c-15.643,6.158-32.259,9.474-49.067,9.792
	c-16.808-0.318-33.424-3.634-49.067-9.792c-5.399-2.357-11.686,0.109-14.043,5.508c-0.604,1.384-0.908,2.88-0.89,4.39
	c0.277,25.792,13.995,74.667,64,74.667s63.723-48.768,64-74.667C312.732,333.803,310.934,330.423,307.924,328.431z"/>
<circle style="fill:#ECEFF1;" cx="211.348" cy="134.66" r="37.333"/>
<path style="fill:#455A64;" d="M211.348,182.596c-26.51,0-48-21.49-48-48s21.49-48,48-48s48,21.49,48,48
	C259.313,161.091,237.843,182.561,211.348,182.596z M211.348,107.93c-14.728,0-26.667,11.939-26.667,26.667
	c0,14.728,11.939,26.667,26.667,26.667s26.667-11.939,26.667-26.667C238.003,119.874,226.071,107.941,211.348,107.93L211.348,107.93
	z"/>
<circle style="fill:#ECEFF1;" cx="286.015" cy="134.66" r="37.333"/>
<g>
	<path style="fill:#455A64;" d="M286.015,182.596c-26.51,0-48-21.49-48-48c0-26.51,21.49-48,48-48c26.51,0,48,21.49,48,48
		c0,0.014,0,0.028,0,0.043C333.956,161.117,312.493,182.561,286.015,182.596z M286.015,107.93
		c-14.728,0-26.667,11.939-26.667,26.667c0,14.728,11.939,26.667,26.667,26.667c14.711,0,26.643-11.913,26.667-26.624
		C312.693,119.9,300.754,107.941,286.015,107.93C286.015,107.93,286.015,107.93,286.015,107.93L286.015,107.93z"/>
	<path style="fill:#455A64;" d="M376.682,155.972c-1.267,0.005-2.525-0.219-3.712-0.661c-15.958-5.759-32.679-9.131-49.621-10.005
		c-5.891,0-10.667-4.776-10.667-10.667s4.776-10.667,10.667-10.667c19.487,0.855,38.73,4.675,57.067,11.328
		c5.526,2.042,8.35,8.177,6.308,13.703C385.171,153.204,381.16,155.987,376.682,155.972z"/>
	<path style="fill:#455A64;" d="M120.682,155.972c-5.891,0.005-10.671-4.767-10.675-10.658c-0.004-4.491,2.806-8.503,7.027-10.035
		c18.334-6.554,37.535-10.364,56.981-11.307c5.891,0,10.667,4.776,10.667,10.667s-4.776,10.667-10.667,10.667
		c-16.956,0.95-33.688,4.327-49.685,10.027C123.16,155.757,121.926,155.973,120.682,155.972z"/>
</g>
<g>
	<circle style="fill:#607D8B;" cx="216.682" cy="145.327" r="10.667"/>
	<circle style="fill:#607D8B;" cx="291.348" cy="145.327" r="10.667"/>
</g>
<g>
</g>
<g>
</g>
<g>
</g>
<g>
</g>
<g>
</g>
<g>
</g>
<g>
</g>
<g>
</g>
<g>
</g>
<g>
</g>
<g>
</g>
<g>
</g>
<g>
</g>
<g>
</g>
<g>
</g>
</svg>
