<svg height="512pt" viewBox="0 0 512 512" width="512pt" xmlns="http://www.w3.org/2000/svg"><path d="m407 392c-8.277344 0-15 6.722656-15 15s6.722656 15 15 15 15-6.722656 15-15-6.722656-15-15-15zm0 0"/><path d="m422 92h81.210938l-81.210938-83.210938zm0 0"/><path d="m392 107v-107h-226c-8.289062 0-15 6.710938-15 15v138.519531c34.191406 6.96875 60 37.265625 60 73.480469 0 5.683594-.644531 11.367188-1.917969 16.902344l-27.421875 118.648437c27.136719 2.695313 51.164063 20.027344 61.84375 45.328125l8.960938 15.28125c27.613281 5.367188 48.535156 29.675782 48.535156 58.839844v30h196c8.289062 0 15-6.710938 15-15v-375h-105c-8.289062 0-15-6.710938-15-15zm-106.027344 225c-8.285156 0-15-6.714844-15-15s6.714844-15 15-15 15 6.714844 15 15-6.714844 15-15 15zm0-60c-8.285156 0-15-6.714844-15-15s6.714844-15 15-15 15 6.714844 15 15-6.714844 15-15 15zm0-60c-8.285156 0-15-6.714844-15-15s6.714844-15 15-15 15 6.714844 15 15-6.714844 15-15 15zm10.632813-64.394531c-2.929688 2.929687-6.769531 4.394531-10.605469 4.394531s-7.675781-1.464844-10.605469-4.394531l-30-30c-5.859375-5.859375-5.859375-15.351563 0-21.210938s15.351563-5.859375 21.210938 0l19.394531 19.394531 50.394531-49.394531c5.859375-5.859375 15.351563-5.859375 21.210938 0s5.859375 15.351563 0 21.210938zm110.394531 304.394531c-24.8125 0-45-20.1875-45-45s20.1875-45 45-45 45 20.1875 45 45-20.1875 45-45 45zm30-120h-90c-8.289062 0-15-6.710938-15-15s6.710938-15 15-15h90c8.289062 0 15 6.710938 15 15s-6.710938 15-15 15zm0-60h-90c-8.289062 0-15-6.710938-15-15s6.710938-15 15-15h90c8.289062 0 15 6.710938 15 15s-6.710938 15-15 15zm15-75c0 8.289062-6.710938 15-15 15h-90c-8.289062 0-15-6.710938-15-15s6.710938-15 15-15h90c8.289062 0 15 6.710938 15 15zm0 0"/><path d="m15 512h241c8.285156 0 15-6.714844 15-15v-15c0-16.570312-13.429688-30-30-30h-6.410156l-18.097656-30.863281c-6.589844-17.503907-23.289063-29.136719-42.113282-29.136719h-77.757812c-18.824219 0-35.523438 11.632812-42.113282 29.136719l-18.097656 30.863281h-6.410156c-16.570312 0-30 13.429688-30 30v15c0 8.285156 6.714844 15 15 15zm0 0"/><path d="m151 362 28.84375-124.820312c.761719-3.308594 1.15625-6.738282 1.15625-10.179688 0-24.8125-20.1875-45-45-45s-45 20.1875-45 45c0 3.296875.367188 6.753906 1.15625 10.164062l31.597656 124.835938zm0 0"/></svg>