<?xml version="1.0" encoding="iso-8859-1"?>
<!-- Generator: Adobe Illustrator 21.0.0, SVG Export Plug-In . SVG Version: 6.00 Build 0)  -->
<svg xmlns="http://www.w3.org/2000/svg" xmlns:xlink="http://www.w3.org/1999/xlink" version="1.1" id="Capa_1" x="0px" y="0px" viewBox="0 0 512 512" style="enable-background:new 0 0 512 512;" xml:space="preserve" width="512" height="512">
<g>
	<path style="fill:#D8D5ED;" d="M0.03,387.53c4.675-38.892,26.303-43.963,26.303-43.963l22.214,22.218   c0,0-5.061,21.641-43.953,26.311C1.971,392.411-0.286,390.153,0.03,387.53z"/>
	<path style="fill:#FF2C5C;" d="M508,346.7H345.906v-158.04H508c2.209,0,4,1.791,4,4V342.7C512,344.909,510.209,346.7,508,346.7z"/>
	<path style="fill:#E62753;" d="M481.095,188.661V346.7H508c2.209,0,4-1.791,4-4v-150.04c0-2.209-1.791-4-4-4H481.095z"/>
	<path style="fill:#D6244D;" d="M448.129,273.256h-71.317c-4.267,0-7.726,3.459-7.726,7.726c0,4.267,3.459,7.726,7.726,7.726h71.317   c4.267,0,7.726-3.459,7.726-7.726C455.855,276.715,452.396,273.256,448.129,273.256z"/>
	<path style="fill:#E89776;" d="M310.333,219.09H192.291l-83.96,84.42l59.075,64.737l61.483-6.055   c7.973-0.785,15.606-3.626,22.155-8.246l0,0c6.682-4.714,14.657-7.245,22.832-7.245h36.457V219.09z"/>
	<path style="fill:#E8916F;" d="M134.357,211.088l-67.862,28.367c-1.495,0.625-2.776,1.67-3.69,3.008l-38.481,56.363   c-1.816,2.66-1.328,6.264,1.13,8.344l5.345,4.523c6.504,5.504,15.996,5.608,22.619,0.249l50.864-41.162l59.861-25.424   L134.357,211.088z"/>
	<path style="fill:#50536E;" d="M46.379,369.059l-23.31-23.314c-1.61-1.61-1.61-4.223,0-5.833l259.337-259.38   c8.041-8.043,21.072-8.043,29.113,0l0,0c8.051,8.052,8.051,21.115,0,29.167L52.202,369.059   C50.593,370.668,47.987,370.668,46.379,369.059z"/>
	<path style="fill:#FFD659;" d="M46.379,369.059l-23.31-23.314c-1.61-1.61-1.61-4.223,0-5.833l18.937-18.94l29.138,29.143   l-18.942,18.945C50.593,370.668,47.987,370.668,46.379,369.059z"/>
	<path style="fill:#EBAD88;" d="M249.52,184.218l-55.919-25.522c-3.325-1.518-7.14-1.54-10.482-0.061l-85.693,37.917   c-7.021,3.106-9.786,11.631-5.928,18.274l0,0c8.772,15.104,26.668,22.319,43.449,17.515l31.409-8.991   c5.027-1.439,10.437,0.021,14.06,3.795l44.053,45.891c12.395,12.912,28.292,21.912,45.732,25.892l40.131,4.581V188.661h-40.384   C262.9,188.661,255.934,187.146,249.52,184.218z"/>
	<path style="fill:#D8D5ED;" d="M367.121,358.654h-67.154c-5.352,0-9.691-4.339-9.691-9.691V182.719   c0-5.352,4.339-9.691,9.691-9.691h67.154c5.352,0,9.691,4.339,9.691,9.691v166.244   C376.811,354.315,372.473,358.654,367.121,358.654z"/>
	<path style="fill:#BEBADE;" d="M367.126,173.029H336.22c5.349,0,9.686,4.341,9.686,9.696v166.234c0,5.355-4.336,9.696-9.686,9.696   h30.905c5.349,0,9.686-4.341,9.686-9.696V182.724C376.811,177.369,372.475,173.029,367.126,173.029z"/>
	<path style="fill:#E8A67D;" d="M211.647,361.081l0.003,0.022c1.422,12.245-7.35,23.326-19.595,24.751l-19.02,2.213   c-9.667,1.125-18.416-5.801-19.539-15.469l-1.082-9.319c-1.122-9.664,5.801-18.409,15.465-19.534l19.069-2.219   C199.169,340.105,210.228,348.86,211.647,361.081z"/>
	<path style="fill:#E8AB86;" d="M193.54,332.643l0.003,0.022c1.422,12.245-7.35,23.326-19.595,24.751l-36.865,4.29   c-9.667,1.125-18.416-5.801-19.539-15.469l-1.082-9.319c-1.122-9.664,5.801-18.409,15.465-19.534l36.914-4.296   C181.061,311.667,192.12,320.422,193.54,332.643z"/>
	<path style="fill:#EBAD88;" d="M171.482,302.358l0.003,0.022c1.422,12.245-7.35,23.326-19.595,24.751l-36.865,4.29   c-9.667,1.125-18.416-5.801-19.539-15.469l-1.082-9.319c-1.122-9.664,5.801-18.409,15.465-19.534l36.914-4.296   C159.004,281.382,170.063,290.137,171.482,302.358z"/>
	<path style="fill:#FFD659;" d="M496.539,437.5H15.461C6.922,437.5,0,430.578,0,422.039v-0.016c0-8.539,6.922-15.461,15.461-15.461   h481.079c8.539,0,15.461,6.922,15.461,15.461v0.016C512,430.578,505.078,437.5,496.539,437.5z"/>
	<path style="fill:#FFBD54;" d="M496.547,406.563h-30.905c8.534,0,15.453,6.926,15.453,15.469c0,8.543-6.918,15.469-15.453,15.469   h30.905c8.534,0,15.453-6.926,15.453-15.469C512,413.488,505.082,406.563,496.547,406.563z"/>
	<circle style="fill:#FF2C5C;" cx="333.264" cy="228.185" r="15.453"/>
</g>















</svg>
